# xmcd CD database file
#
# Track frame offsets:
#	150
#	13041
#	28569
#	45854
#	66034
#	80836
#	99790
#	113528
#	128576
#	152272
#	165547
#	179102
#
# Disc length: 2600 seconds
#
# Revision: 0
# Processed by: cddbd v1.5.2PL0 Copyright (c) Steve Scherf et al.
# Submitted via: CDex 1.70beta2
#
DISCID=820a260c
DTITLE=Porter - Can't Keep Still
DYEAR=2011
DGENRE=Blues
TTITLE0=Ten days
TTITLE1=Don't wanna work no more
TTITLE2=Emily
TTITLE3=Hanging on
TTITLE4=Can't keep still
TTITLE5=Happiest day
TTITLE6=A little luck
TTITLE7=River
TTITLE8=Drive
TTITLE9=Riff raff
TTITLE10=Out of my hands
TTITLE11=Bridge too far
EXTD=YEAR: 2011
EXTT0=
EXTT1=
EXTT2=
EXTT3=
EXTT4=
EXTT5=
EXTT6=
EXTT7=
EXTT8=
EXTT9=
EXTT10=
EXTT11=
PLAYORDER=
